# xmcd
#
# Track frame offsets: 
#        150
#        8169
#        29974
#        56315
#        77183
#        86439
#        104415
#        131060
#        160065
#        179507
#
# Disc length: 2668 seconds
#
# Revision: 0
# Processed by: cddbd v1.5.2PL0 Copyright (c) Steve Scherf et al.
# Submitted via: ExactAudioCopyFreeDBPlugin 1.0
#
DISCID=7e0a6a0a
DTITLE=老王樂隊 - 吾日三省吾身
DYEAR=2019
DGENRE=Country
TTITLE0=不知反省
TTITLE1=迎面而來
TTITLE2=垂釣
TTITLE3=他們在鐵皮屋頂上奔跑
TTITLE4=日夜無常
TTITLE5=再等一下就天亮了
TTITLE6=規律的生活
TTITLE7=安九
TTITLE8=曾經的女人啊 你在哪裡 你在哪裡
TTITLE9=那些失眠的夜與難以忘懷的事
EXTD=
EXTT0=
EXTT1=
EXTT2=
EXTT3=
EXTT4=
EXTT5=
EXTT6=
EXTT7=
EXTT8=
EXTT9=
PLAYORDER=
